<svg id="noun_demo_1568660" xmlns="http://www.w3.org/2000/svg" width="25.609" height="23.478" viewBox="0 0 25.609 23.478">
  <g id="Group_3023" data-name="Group 3023" transform="translate(0 0)">
    <path id="Path_11718" data-name="Path 11718" d="M17.036,65.834a1.48,1.48,0,0,0-1.126.538L14.3,68.451a17.906,17.906,0,0,0-2.461-3.563,4.939,4.939,0,0,0-1.4-.734,3.623,3.623,0,0,1-.745.606,4.758,4.758,0,0,1,1.652.755c.291.231,2.875,4.346,2.875,4.346l.714-.919,1.6-2.058a.674.674,0,0,1,.509-.249.576.576,0,0,1,.391.149.809.809,0,0,1-.051,1.074l-.015.018-.015.019-2.81,3.689a.751.751,0,0,1-.572.31.572.572,0,0,1-.356-.127l-2.335-3.953v6.179a.9.9,0,0,1-.893.9H5.194a.887.887,0,0,1-.638-.261.8.8,0,0,1-.234-.584l.019-6.466-2.218,5.3a.934.934,0,0,1-.774.594.464.464,0,0,1-.187-.039A.9.9,0,0,1,.886,72.3l.608-1.529L2.9,67.218a4.548,4.548,0,0,1,2.963-2.5,3.624,3.624,0,0,1-.714-.6,5.354,5.354,0,0,0-2.981,2.774C2.17,66.9.928,70.024.143,72a1.666,1.666,0,0,0,.694,2.169,1.259,1.259,0,0,0,.511.107A1.726,1.726,0,0,0,2.856,73.2l.672-1.6-.007,2.453A1.646,1.646,0,0,0,5.194,75.7H10.38a1.7,1.7,0,0,0,1.693-1.7V70.742l.908,1.537a1.384,1.384,0,0,0,.983.415,1.542,1.542,0,0,0,1.205-.62l2.814-3.694a1.6,1.6,0,0,0-.009-2.18A1.376,1.376,0,0,0,17.036,65.834Z" transform="translate(0 -52.22)" fill="#666"/>
    <path id="Path_11719" data-name="Path 11719" d="M48.006,6H31.6A1.605,1.605,0,0,0,30,7.6v4.492a3.573,3.573,0,0,1,.8-.345V7.6a.8.8,0,0,1,.8-.8H48.006a.8.8,0,0,1,.8.8v12a.8.8,0,0,1-.8.8H43.175a2.461,2.461,0,0,1-.013.8h4.845a1.605,1.605,0,0,0,1.6-1.6V7.6A1.605,1.605,0,0,0,48.006,6Z" transform="translate(-23.998 -6.001)" fill="#666"/>
    <path id="Path_11720" data-name="Path 11720" d="M27.832,43.6a2.8,2.8,0,1,0-2.8-2.8A2.8,2.8,0,0,0,27.832,43.6Zm0-4.8a2,2,0,1,1-2,2A2,2,0,0,1,27.832,38.8Z" transform="translate(-20.023 -31.501)" fill="#666"/>
  </g>
</svg>
