<svg xmlns="http://www.w3.org/2000/svg" width="25.612" height="25.613" viewBox="0 0 25.612 25.613">
  <g id="noun_review_2561352" transform="translate(0 0)">
    <path id="Path_1115" data-name="Path 1115" d="M4.475,2.408a.347.347,0,0,0-.354.34V21.1a.347.347,0,0,0,.354.34H14.5a5.232,5.232,0,0,1-.475-.68H4.83V3.088H18.694v9.887a5.688,5.688,0,0,1,.709.037V2.748a.347.347,0,0,0-.354-.34H4.475ZM6.821,5.3a.34.34,0,1,0,0,.68l9.881.005a.34.34,0,1,0,0-.68L6.821,5.3Zm0,5.984a.34.34,0,1,0,0,.68l9.881.005a.34.34,0,1,0,0-.68l-9.881-.005Zm11.784,2.055a5.163,5.163,0,0,0-3.538,1.553,4.747,4.747,0,0,0,.265,6.9,5.243,5.243,0,0,0,6.955-.038l.634.6a1.06,1.06,0,0,0-.094.215.555.555,0,0,0,.132.594l5.3,4.728a.617.617,0,0,0,.628.083,1.308,1.308,0,0,0,.5-.335,1.244,1.244,0,0,0,.311-.5.556.556,0,0,0-.132-.6l-5.3-4.727a.617.617,0,0,0-.628-.083,1.154,1.154,0,0,0-.24.12l-.632-.6a4.742,4.742,0,0,0-.514-6.612,5.2,5.2,0,0,0-3.648-1.3Zm-11.784.121a.34.34,0,1,0,0,.68l8.539,0a5.5,5.5,0,0,1,1.126-.679l-9.666-.005Zm11.81.554a4.471,4.471,0,0,1,3.14,1.122A4.077,4.077,0,0,1,22,21.074a4.5,4.5,0,0,1-6.185.218,4.077,4.077,0,0,1-.228-5.935,4.443,4.443,0,0,1,3.044-1.341ZM6.821,15.638a.34.34,0,1,0,0,.68l6.881,0a5.152,5.152,0,0,1,.34-.68l-7.221,0Zm14.75.389a.362.362,0,0,0-.245.1l-3.707,3.427L16.3,17.866a.361.361,0,0,0-.329-.141.353.353,0,0,0-.288.208.329.329,0,0,0,.05.342l1.564,1.993a.358.358,0,0,0,.255.134.363.363,0,0,0,.274-.094l4-3.693a.33.33,0,0,0,.086-.375.355.355,0,0,0-.333-.213ZM6.821,17.814a.34.34,0,1,0,0,.68l6.524,0a5.03,5.03,0,0,1,0-.68l-6.526,0Zm17.049,4.5,5.205,4.641s0,0,0,.007a.7.7,0,0,1-.162.25.733.733,0,0,1-.247.173l-.006,0-5.205-4.641s0,0,0-.006a.7.7,0,0,1,.162-.25.736.736,0,0,1,.247-.173l.007,0Z" transform="translate(-4.121 -2.408)" fill="#333"/>
  </g>
</svg>
