<svg xmlns="http://www.w3.org/2000/svg" xmlns:xlink="http://www.w3.org/1999/xlink" width="71" height="71" viewBox="0 0 71 71">
  <defs>
    <clipPath id="clip-path">
      <rect id="Rectangle_15846" data-name="Rectangle 15846" width="71" height="71" transform="translate(294 404)"/>
    </clipPath>
    <clipPath id="clip-path-2">
      <rect id="Rectangle_15845" data-name="Rectangle 15845" width="71" height="71" transform="translate(294 380)"/>
    </clipPath>
  </defs>
  <g id="Image" transform="translate(-32.723 -56.763)">
    <g id="Group_39176" data-name="Group 39176" transform="translate(-261.277 -347.237)" clip-path="url(#clip-path)">
      <g id="Group_39175" data-name="Group 39175" transform="translate(0 24)" clip-path="url(#clip-path-2)">
        <path id="Path_14795" data-name="Path 14795" d="M328.834,394.57a3.106,3.106,0,1,0,3.107,3.106A3.125,3.125,0,0,0,328.834,394.57Z" fill="#3d3d3d" stroke="#646464" stroke-width="0.74"/>
        <path id="Path_14796" data-name="Path 14796" d="M322.622,412.69a3.107,3.107,0,1,1-3.106-3.107A3.107,3.107,0,0,1,322.622,412.69Z" fill="#3d3d3d" stroke="#646464" stroke-width="0.74"/>
        <path id="Path_14797" data-name="Path 14797" d="M337.635,398.711l-1.849.888a6.434,6.434,0,0,1-.739,1.627l.665,1.923-1.479,1.479-1.923-.666a6.26,6.26,0,0,1-1.627.666L329.8,406.4h-2.071l-.888-1.849a6.321,6.321,0,0,1-1.627-.665l-1.922.665-1.48-1.479.666-1.923a6.274,6.274,0,0,1-.666-1.627l-1.849-.887v-2.071l1.849-.888a6.274,6.274,0,0,1,.666-1.627l-.592-1.923,1.479-1.479,1.923.666a6.289,6.289,0,0,1,1.627-.666l.888-1.849h2.071l.887,1.775a6.261,6.261,0,0,1,1.627.666l1.923-.666,1.479,1.479-.665,1.923a6.252,6.252,0,0,1,.665,1.627l1.849.888Zm-9.318,15.014-1.849.887a6.281,6.281,0,0,1-.666,1.628l.592,1.923-1.479,1.479-1.923-.666a6.29,6.29,0,0,1-1.627.666l-.814,1.775H318.48l-.887-1.849a6.26,6.26,0,0,1-1.627-.666l-1.923.592-1.479-1.479.665-1.923a6.252,6.252,0,0,1-.665-1.627l-1.849-.888v-2.071l1.849-.887a6.224,6.224,0,0,1,.665-1.627l-.665-1.923,1.479-1.479,1.923.665a6.224,6.224,0,0,1,1.627-.665l.887-1.849h2.145l.888,1.849a6.252,6.252,0,0,1,1.627.665l1.922-.665,1.48,1.479-.666,1.923a6.26,6.26,0,0,1,.666,1.627l1.849.887Zm25.589,2.736-5.1-8.875v-.369a22.226,22.226,0,1,0-35.722,17.9v18.711h23.371v-8.875h3.624a8.786,8.786,0,0,0,6.213-2.589,9.02,9.02,0,0,0,2.514-6.286v-4.437h3.254C353.98,421.417,355.681,419.2,353.906,416.461Z" fill="#3d3d3d" stroke="#646464" stroke-width="0.74"/>
      </g>
    </g>
  </g>
</svg>
